<?xml version="1.0" encoding="utf-8"?>
<!-- Generator: Adobe Illustrator 22.0.1, SVG Export Plug-In . SVG Version: 6.00 Build 0)  -->
<svg version="1.1" id="Layer_1" xmlns="http://www.w3.org/2000/svg" xmlns:xlink="http://www.w3.org/1999/xlink" x="0px" y="0px"
	 viewBox="0 0 644.4 249.4" style="enable-background:new 0 0 644.4 249.4;" xml:space="preserve">
<style type="text/css">
	.st0{fill:url(#SVGID_1_);}
</style>
<linearGradient id="SVGID_1_" gradientUnits="userSpaceOnUse" x1="322.2203" y1="1.3125" x2="322.2203" y2="249.3857">
	<stop  offset="0.1807" style="stop-color:#14A248"/>
	<stop  offset="0.3275" style="stop-color:#139A47"/>
	<stop  offset="0.5552" style="stop-color:#118446"/>
	<stop  offset="0.8338" style="stop-color:#0D6144"/>
	<stop  offset="1" style="stop-color:#0A4842"/>
</linearGradient>
<path class="st0" d="M151.1,224.5c0,16.9-8,24.9-24.9,24.9H28.2C9.2,249.4,0,238.9,0,219V35.1c0-16.9,8.3-24.9,24.3-24.9
	c16.9,0,24.9,8,24.9,24.9v165.2h77.1C143.1,200.3,151.1,208.6,151.1,224.5z M620.5,71.9H591V34.5c0-15.7-8.3-24.3-23.9-24.3
	s-23.6,8.6-23.6,24.3v37.5h-40.9c-5.8,0-11.1,1.8-16,5.8l-59.9,50.7V34.2c0-16-7.7-23.9-23.6-23.9c-16,0-23.3,8-23.3,23.9v191.6
	c0,15.7,7.7,23.6,23.3,23.6c16.3,0,23.6-8,23.6-23.6v-39.3c1.5-1.8,18.1-15.4,19.6-16.6c0,0,0.1,0.1,0.3,0.2l39.2,67.4
	c3.3,5.4,7.5,8.8,13,10.8c6.3,2.2,13.4,1.3,19.4-1.9c5.7-3.6,10.1-9.3,11.3-15.9c1-5.7,0.1-11.1-2.9-16.6l-42.2-72.5l26-21.7h33.1
	v105.9c0,16.3,7.7,23.9,23.9,23.9c16,0,23.6-7.7,23.6-23.9V119.5h29.5c16.3,0,23.9-7.7,23.9-23.9C644.4,79.6,636.8,71.9,620.5,71.9z
	 M314.2,70.7c-18.4,0-31.9,9.8-42.7,22.1c0-9.5-7.7-21.2-23.9-21.2c-15.4,0-23,11.7-23,24.6v129.6c0,15.7,7.7,23.6,23,23.6
	c16.3,0,23.9-8,23.9-23.6v-85.7c0-18.1,12-27.3,24.3-27.3c11.1,0,22.7,8.9,22.7,27.3v85.7c0,15.7,8.3,23.6,23.6,23.6
	c16,0,23.9-8,23.9-23.6v-94.3C366.1,86.4,337.8,70.7,314.2,70.7z M186.9,1.3c-15,0-27.3,12-27.3,27.3c0,15.4,12.3,27.3,27.3,27.3
	c15.7,0,27.6-12,27.6-27.3C214.5,13.3,202.5,1.3,186.9,1.3z M187,73.2c-15.7,0-23.9,7.7-23.9,23.9v128.3c0,16.3,8.3,23.9,23.9,23.9
	s23.9-7.7,23.9-23.9V97.1C211,80.8,202.7,73.2,187,73.2z"/>
</svg>
